<svg xmlns="http://www.w3.org/2000/svg" xmlns:xlink="http://www.w3.org/1999/xlink" width="165" height="90" viewBox="0 0 165 90">
  <defs>
    <polygon id="logo-clb-a" points="0 89.904 164.475 89.904 164.475 .831 0 .831"/>
  </defs>
  <g fill="none" fill-rule="evenodd" transform="translate(0 -1)">
    <polygon fill="#155880" points="80.379 39.074 80.379 14.427 85.177 14.427 85.177 34.782 96.321 34.782 96.321 39.074"/>
    <polygon fill="#155880" points="100.219 39.074 100.219 14.427 116.402 14.427 116.402 18.72 105.017 18.72 105.017 24.5 114.712 24.5 114.712 28.792 105.017 28.792 105.017 34.782 116.402 34.782 116.402 39.074"/>
    <g transform="translate(0 .265)">
      <path fill="#155880" d="M122.74951,36.2117506 C121.645868,35.1044012 120.944344,33.7087024 120.646033,32.0246542 C120.460272,31.0313289 120.369576,29.1970759 120.369576,26.518606 C120.369576,23.8423289 120.460272,21.9949193 120.646033,20.9785699 C120.944344,19.2956181 121.645868,17.8999193 122.74951,16.7903771 C124.520801,15.0142325 126.718252,14.1250639 129.341861,14.1250639 C131.94143,14.1250639 134.124675,15.0142325 135.894874,16.7903771 C137.00398,17.8999193 137.701132,19.2956181 138.001629,20.9785699 C138.20706,22.0201361 138.308682,23.865353 138.308682,26.518606 C138.308682,29.1499313 138.20706,30.9852807 138.001629,32.0246542 C137.701132,33.7087024 137.00398,35.1044012 135.894874,36.2117506 C134.398947,37.6907747 132.639675,38.5547265 130.614874,38.8079916 L130.614874,34.4476663 C131.35355,34.2174253 131.94143,33.8479434 132.375238,33.3403169 C133.158715,32.462112 133.549907,30.1893048 133.549907,26.518606 C133.549907,22.8259795 133.158715,20.5433048 132.375238,19.6640036 C131.617987,18.812112 130.60504,18.3834253 129.341861,18.3834253 C128.052457,18.3834253 127.025305,18.812112 126.268053,19.6640036 C125.485669,20.5202807 125.096662,22.8040518 125.096662,26.518606 C125.096662,30.2112325 125.485669,32.4851361 126.268053,33.3403169 C126.636298,33.7766783 127.138947,34.1121723 127.786927,34.3424133 L127.786927,38.7751 C125.833152,38.473594 124.153649,37.6184133 122.74951,36.2117506"/>
      <polygon fill="#155880" points="157.841 38.808 148.11 23.681 148.11 38.808 143.314 38.808 143.314 14.161 147.59 14.161 157.322 29.254 157.322 14.161 162.119 14.161 162.119 38.808"/>
      <path fill="#155880" d="M6.13679801,76.5757325 L0.00120198675,76.5757325 L0.00120198675,46.0413952 L12.6198775,46.0413952 C15.6521623,46.0413952 18.0342815,46.814347 19.7727914,48.3591542 C21.4763344,49.9017687 22.3319305,51.9859976 22.3319305,54.6184193 C22.3319305,56.1654193 21.8751755,57.5512506 20.9616656,58.7802988 C20.2568642,59.7506 19.4165662,60.4676361 18.4484205,60.9237325 C21.3288179,62.2393952 22.7733874,64.5242627 22.7733874,67.7838169 C22.7733874,70.5587687 21.8751755,72.7307084 20.0809371,74.3018289 C18.3435199,75.8192265 16.0346126,76.5757325 13.1498444,76.5757325 L9.9307053,76.5757325 L9.9307053,71.2582627 L12.5346457,71.2582627 C13.8579238,71.2582627 14.8872616,70.8887807 15.6215662,70.1443349 C16.297957,69.4569012 16.6388841,68.5721181 16.6388841,67.4856 C16.6388841,66.3979855 16.297957,65.5110096 15.6215662,64.8224795 C14.8872616,64.1131181 13.8579238,63.7535036 12.5346457,63.7535036 L9.88481126,63.7535036 L9.88481126,58.3932747 L12.1379901,58.3932747 C13.4022616,58.3932747 14.4031887,58.064359 15.1385861,57.4076241 C15.8433874,56.7772024 16.1963344,55.9362747 16.1963344,54.8771663 C16.1963344,53.8191542 15.8433874,52.973841 15.1385861,52.3467084 C14.4031887,51.6899735 13.4022616,51.3599614 12.1379901,51.3599614 L6.13679801,51.3599614 L6.13679801,76.5757325 Z"/>
      <polygon fill="#155880" points="29.039 76.576 29.039 46.041 49.736 46.041 49.736 51.36 35.172 51.36 35.172 58.519 47.571 58.519 47.571 63.842 35.172 63.842 35.172 71.258 49.736 71.258 49.736 76.576"/>
      <path fill="#155880" d="M61.8706291,76.5757325 L55.7383113,76.5757325 L55.7383113,46.0413952 L68.0499338,46.0413952 C71.1674503,46.0413952 73.6697682,46.9557807 75.5557947,48.787841 C77.346755,50.5321904 78.2427815,52.7326361 78.2427815,55.3924675 C78.2427815,57.4207807 77.6701987,59.1629373 76.5206623,60.6233229 C75.4924172,61.9082867 74.1527483,62.8402145 72.5071192,63.4114313 L79.5245364,76.5757325 L72.419702,76.5757325 L67.4347351,66.6282265 L67.4347351,59.4216843 L67.6532781,59.4216843 C68.977649,59.4216843 70.0528808,59.0522024 70.8756954,58.308853 C71.6985099,57.5622145 72.1093709,56.5897205 72.1093709,55.3924675 C72.1093709,54.1908289 71.6985099,53.2172386 70.8756954,52.4749855 C70.0528808,51.7338289 68.977649,51.3599614 67.6532781,51.3599614 L61.8706291,51.3599614 L61.8706291,76.5757325 Z"/>
      <polygon fill="#155880" points="97.616 46 109.089 76.575 102.691 76.575 100.839 71.173 100.796 71.173 95.321 55.006 91.35 66.154 95.234 66.154 96.953 71.173 89.63 71.173 87.732 76.575 81.333 76.575 92.765 46"/>
      <path fill="#155880" d="M118.887089 76.5757325L112.751493 76.5757325 112.751493 46.0413952 125.066394 46.0413952C128.181725 46.0413952 130.68295 46.9557807 132.568977 48.787841 134.36103 50.5321904 135.259242 52.7326361 135.259242 55.3924675 135.259242 57.4207807 134.683381 59.1629373 133.53603 60.6233229 132.508877 61.9082867 131.169209 62.8402145 129.524672 63.4114313L136.540997 76.5757325 129.432884 76.5757325 124.446825 66.6282265 124.446825 59.4216843 124.668646 59.4216843C125.991924 59.4216843 127.06497 59.0522024 127.891063 58.308853 128.711692 57.5622145 129.125831 56.5897205 129.125831 55.3924675 129.125831 54.1908289 128.711692 53.2172386 127.891063 52.4749855 127.06497 51.7338289 125.991924 51.3599614 124.668646 51.3599614L118.887089 51.3599614 118.887089 76.5757325zM147.749086 76.5757325L141.611305 76.5757325 141.611305 45.9997325 152.955874 45.9997325C156.517033 45.9997325 159.294715 46.9733229 161.299848 48.9161181 162.827464 50.4324193 163.798887 52.3335518 164.207563 54.6184193 164.382397 55.6490217 164.475278 57.8363108 164.475278 61.1802867 164.475278 64.5538651 164.382397 66.7707566 164.207563 67.8276723 163.798887 70.201347 162.827464 72.1463349 161.299848 73.659347 159.294715 75.6021422 156.517033 76.5757325 152.955874 76.5757325L151.455576 76.5757325 151.455576 71.2582627 152.381106 71.2582627C154.384053 71.2582627 155.913854 70.6289373 156.973788 69.3713831 157.881834 68.3144675 158.340775 65.5855639 158.340775 61.1802867 158.340775 56.9219253 157.881834 54.262094 156.973788 53.2040819 155.913854 51.9443349 154.384053 51.316106 152.381106 51.316106L147.749086 51.316106 147.749086 76.5757325z"/>
      <mask id="logo-clb-b" fill="#fff">
        <use xlink:href="#logo-clb-a"/>
      </mask>
      <polygon fill="#E62273" points="143.312 6.86 162.152 6.86 162.152 .831 143.312 .831" mask="url(#logo-clb-b)"/>
      <path fill="#155880" d="M32.3251391,19.8515952 C32.1841788,20.6892337 31.8366954,21.3448723 31.281596,21.8141253 C30.7428874,22.2691253 30.0686821,22.4960771 29.255702,22.4960771 C28.3651391,22.4960771 27.6155364,22.1912819 27.006894,21.5794988 C26.6484834,21.218788 26.4211987,20.7999687 26.3272252,20.3219446 C26.2343444,19.8515952 26.1873576,19.1586795 26.1873576,18.2421012 C26.1873576,17.3255229 26.2343444,16.6304145 26.3272252,16.1611614 C26.4211987,15.6842337 26.6484834,15.2643181 27.006894,14.9036072 C27.6155364,14.2929205 28.3651391,13.9870289 29.255702,13.9870289 C30.0686821,13.9870289 30.7428874,14.2139807 31.281596,14.6689807 C31.8366954,15.1393301 32.1841788,15.7938723 32.3251391,16.6304145 L30.6729536,16.6304145 C30.4784503,15.8410169 30.0096755,15.4441253 29.2677219,15.4441253 C28.814245,15.4441253 28.4667616,15.5899446 28.2252715,15.8793904 C27.9520927,16.1699325 27.8144106,16.956041 27.8144106,18.2421012 C27.8144106,19.5270651 27.9520927,20.3142699 28.2252715,20.6037157 C28.4667616,20.8942578 28.814245,21.0389807 29.2677219,21.0389807 C30.0096755,21.0389807 30.4784503,20.6442819 30.6729536,19.8515952 L32.3251391,19.8515952 Z" mask="url(#logo-clb-b)"/>
      <polygon fill="#155880" points="33.731 22.426 33.731 14.058 39.224 14.058 39.224 15.515 35.358 15.515 35.358 17.478 38.649 17.478 38.649 18.935 35.358 18.935 35.358 20.97 39.224 20.97 39.224 22.426" mask="url(#logo-clb-b)"/>
      <polygon fill="#155880" points="45.748 22.426 42.444 17.289 42.444 22.426 40.817 22.426 40.817 14.058 42.27 14.058 45.573 19.181 45.573 14.058 47.201 14.058 47.201 22.426" mask="url(#logo-clb-b)"/>
      <polygon fill="#155880" points="52.33 15.515 52.33 22.426 50.703 22.426 50.703 15.515 48.524 15.515 48.524 14.058 54.509 14.058 54.509 15.515" mask="url(#logo-clb-b)"/>
      <path fill="#155880" d="M57.4603212,22.4255795 L55.8332682,22.4255795 L55.8332682,14.0579651 L59.1004868,14.0579651 C59.9276722,14.0579651 60.592043,14.3090373 61.0914139,14.8111819 C61.5678377,15.2881096 61.8060497,15.8911217 61.8060497,16.6191217 C61.8060497,17.1771819 61.6530695,17.6541096 61.3492947,18.0553867 C61.0750232,18.4062301 60.7209834,18.661688 60.2838974,18.8173747 L62.1447914,22.4255795 L60.2598576,22.4255795 L58.9354868,19.6999651 L58.9354868,17.7253747 L58.9944934,17.7253747 C59.3463477,17.7253747 59.6315464,17.6223145 59.8500894,17.4194831 C60.0686325,17.2155554 60.177904,16.9480373 60.177904,16.6191217 C60.177904,16.290206 60.0686325,16.0237843 59.8500894,15.820953 C59.6315464,15.6159289 59.3463477,15.5150614 58.9944934,15.5150614 L57.4603212,15.5150614 L57.4603212,22.4255795 Z" mask="url(#logo-clb-b)"/>
      <polygon fill="#155880" points="63.493 22.426 63.493 14.058 68.986 14.058 68.986 15.515 65.12 15.515 65.12 17.478 68.412 17.478 68.412 18.935 65.12 18.935 65.12 20.97 68.986 20.97 68.986 22.426" mask="url(#logo-clb-b)"/>
      <path fill="#155880" d="M37.4851589,30.6088916 L36.7333709,30.6088916 L36.7333709,25.6455542 L38.4729735,25.6455542 C39.0105894,25.6455542 39.4345629,25.8023373 39.7459868,26.1126145 C39.983106,26.3505301 40.1328079,26.6575181 40.1972781,27.0346747 C40.2311523,27.2254458 40.2464503,27.5795783 40.2464503,28.0959759 C40.2464503,28.622241 40.2311523,28.9840482 40.1972781,29.1846867 C40.1328079,29.5881566 39.983106,29.9072048 39.7459868,30.1407349 C39.4345629,30.4521084 39.0105894,30.6088916 38.4729735,30.6088916 L38.049,30.6088916 L38.049,29.9313253 L38.3953907,29.9313253 C38.7527086,29.9313253 39.031351,29.8205904 39.2313179,29.5969277 C39.407245,29.3995783 39.495755,28.8996265 39.495755,28.0959759 C39.495755,27.3328916 39.407245,26.8537711 39.2313179,26.6575181 C39.031351,26.4338554 38.7527086,26.3231205 38.3953907,26.3231205 L37.4851589,26.3231205 L37.4851589,30.6088916 Z" mask="url(#logo-clb-b)"/>
      <polygon fill="#155880" points="41.707 30.609 41.707 25.639 44.873 25.639 44.873 26.315 42.459 26.315 42.459 27.768 44.518 27.768 44.518 28.437 42.459 28.437 42.459 29.931 44.873 29.931 44.873 30.609" mask="url(#logo-clb-b)"/>
      <polygon fill="#155880" points="48.269 30.609 48.269 25.639 49.021 25.639 49.021 29.931 51.406 29.931 51.406 30.609" mask="url(#logo-clb-b)"/>
      <path fill="#155880" d="M56.0048245,28.9331759 C56.0048245,29.4408024 55.8332682,29.8552361 55.4901556,30.1764771 C55.1557848,30.4933325 54.7339967,30.6501157 54.2236987,30.6501157 C53.7134007,30.6501157 53.2916126,30.4933325 52.9583344,30.1764771 C52.6185,29.8552361 52.4491291,29.4408024 52.4491291,28.9331759 L52.4491291,25.637441 L53.2020099,25.637441 L53.2020099,28.899188 C53.2020099,29.2302964 53.2927053,29.4923325 53.4784669,29.6874892 C53.6653212,29.8771639 53.9133675,29.9725494 54.2236987,29.9725494 C54.5340298,29.9725494 54.7831689,29.8771639 54.9678377,29.6874892 C55.1579702,29.4923325 55.2530364,29.2302964 55.2530364,28.899188 L55.2530364,25.637441 L56.0048245,25.637441 L56.0048245,28.9331759 Z" mask="url(#logo-clb-b)"/>
      <polygon fill="#155880" points="59.247 26.315 59.247 30.609 58.495 30.609 58.495 26.315 57.132 26.315 57.132 25.638 60.611 25.638 60.611 26.315" mask="url(#logo-clb-b)"/>
      <polygon fill="#155880" points="63.492 26.315 63.492 30.609 62.74 30.609 62.74 26.315 61.376 26.315 61.376 25.638 64.855 25.638 64.855 26.315" mask="url(#logo-clb-b)"/>
      <polygon fill="#155880" points="66.058 30.609 66.058 25.639 69.223 25.639 69.223 26.315 66.81 26.315 66.81 27.768 68.869 27.768 68.869 28.437 66.81 28.437 66.81 29.931 69.223 29.931 69.223 30.609" mask="url(#logo-clb-b)"/>
      <path fill="#155880" d="M3.54804636 37.306053C3.465 37.7884627 3.26066225 38.1700048 2.93503311 38.4430048 2.62470199 38.7039446 2.24006623 38.8344145 1.78112583 38.8344145 1.26645695 38.8344145.832649007 38.6568.479701987 38.3026675.257880795 38.0811976.114735099 37.8060048.0557284768 37.4792819.0185761589 37.2753542 0 36.8839446 0 36.3072458 0 35.730547.0185761589 35.3391373.0557284768 35.1341133.114735099 34.8095831.257880795 34.5343904.479701987 34.3107277.832649007 33.9565952 1.26645695 33.7789807 1.78112583 33.7789807 2.24443709 33.7789807 2.63235099 33.910547 2.94268212 34.1703904 3.26284768 34.4411976 3.465 34.8194506 3.54804636 35.3095349L2.7831457 35.3095349C2.64874172 34.7405108 2.31437086 34.456547 1.78112583 34.456547 1.47953642 34.456547 1.23586093 34.5563181 1.05009934 34.7569566.851225166 34.9762337.750695364 35.4937277.750695364 36.3072458.750695364 37.1218602.851225166 37.6382578 1.05009934 37.8564386 1.23586093 38.0570771 1.47953642 38.1557518 1.78112583 38.1557518 2.31874172 38.1557518 2.65529801 37.8739807 2.78970199 37.306053L3.54804636 37.306053zM6.21263245 38.8060181C5.82253311 38.7501024 5.48925497 38.581259 5.21061258 38.2951024 4.98879139 38.0791145 4.84673841 37.8050181 4.78663907 37.480488 4.74948675 37.2754639 4.72981788 36.8851506 4.72981788 36.3073554 4.72981788 35.7339458 4.74948675 35.3447289 4.78663907 35.1331265 4.84673841 34.8085964 4.98879139 34.5345 5.21061258 34.3174157 5.55918874 33.9643795 5.99081126 33.7867651 6.50438742 33.7867651 7.02014901 33.7867651 7.45286424 33.9643795 7.80581126 34.3174157 8.0243543 34.5345 8.16312914 34.8085964 8.22322848 35.1331265 8.26038079 35.3348614 8.28004967 35.7240783 8.28004967 36.3073554 8.28004967 36.8895361 8.26038079 37.278753 8.22322848 37.480488 8.16312914 37.8050181 8.0243543 38.0791145 7.80581126 38.2951024 7.52279801 38.581259 7.18405629 38.7501024 6.78958609 38.8060181L6.78958609 38.1152952C6.97097682 38.0637651 7.11958609 37.9760542 7.23541391 37.8499699 7.35561258 37.7151145 7.43428808 37.5495602 7.47253311 37.3544036 7.50968543 37.1581506 7.52826159 36.8105964 7.52826159 36.3073554 7.52826159 35.8041145 7.50968543 35.4576566 7.47253311 35.2657892 7.43428808 35.0673434 7.35561258 34.9006928 7.23541391 34.7702229 7.04965232 34.5673916 6.80706954 34.4643313 6.50438742 34.4643313 6.20279801 34.4643313 5.9580298 34.5673916 5.76680464 34.7702229 5.64660596 34.9006928 5.56793046 35.0673434 5.53077815 35.2657892 5.49362583 35.4576566 5.47504967 35.8041145 5.47504967 36.3073554 5.47504967 36.8105964 5.49362583 37.1581506 5.53077815 37.3544036 5.56793046 37.5495602 5.64660596 37.7151145 5.76680464 37.8499699 5.88372517 37.9760542 6.03233444 38.0637651 6.21263245 38.1152952L6.21263245 38.8060181z" mask="url(#logo-clb-b)"/>
      <polygon fill="#155880" points="12.78 38.792 10.492 35.295 10.492 38.792 9.739 38.792 9.739 33.822 10.429 33.822 12.718 37.312 12.718 33.822 13.47 33.822 13.47 38.792" mask="url(#logo-clb-b)"/>
      <polygon fill="#155880" points="16.788 34.499 16.788 38.792 16.036 38.792 16.036 34.499 14.672 34.499 14.672 33.822 18.15 33.822 18.15 34.499" mask="url(#logo-clb-b)"/>
      <path fill="#155880" d="M21.0459139,36.0618747 C21.3114437,36.0618747 21.5430993,35.9949952 21.7419735,35.8601398 C21.955053,35.7121277 22.0610464,35.5213566 22.0610464,35.2867301 C22.0610464,35.0455253 21.9834636,34.8547542 21.8250199,34.7155133 C21.6720397,34.5762723 21.4709801,34.5061036 21.2196556,34.5061036 L20.1072715,34.5061036 L20.1072715,35.9226337 L20.1072715,38.8050313 L19.3543907,38.8050313 L19.3543907,33.8285373 L21.2753841,33.8285373 C21.7397881,33.8285373 22.1134967,33.9666819 22.3954172,34.2396819 C22.6740596,34.5061036 22.8128344,34.8525614 22.8128344,35.2801518 C22.8128344,35.6266096 22.7177682,35.9160554 22.5276358,36.1539711 C22.3517086,36.3721518 22.1178675,36.523453 21.8250199,36.6067783 L22.9658146,38.8050313 L22.089457,38.8050313 L21.0459139,36.7109349 L21.0459139,36.0618747 Z" mask="url(#logo-clb-b)"/>
      <polygon fill="#155880" points="24.259 38.792 24.259 33.822 27.425 33.822 27.425 34.499 25.011 34.499 25.011 35.95 27.07 35.95 27.07 36.62 25.011 36.62 25.011 38.115 27.425 38.115 27.425 38.792" mask="url(#logo-clb-b)"/>
      <polygon fill="#155880" points="30.82 38.792 30.82 33.822 31.572 33.822 31.572 38.115 33.958 38.115 33.958 38.792" mask="url(#logo-clb-b)"/>
      <polygon fill="#155880" points="35.161 38.792 35.161 33.822 38.327 33.822 38.327 34.499 35.914 34.499 35.914 35.95 37.973 35.95 37.973 36.62 35.914 36.62 35.914 38.115 38.327 38.115 38.327 38.792" mask="url(#logo-clb-b)"/>
      <path fill="#155880" d="M45.0893642,37.306053 C45.0063179,37.7884627 44.8019801,38.1700048 44.476351,38.4430048 C44.1660199,38.7039446 43.7813841,38.8344145 43.3224437,38.8344145 C42.8077748,38.8344145 42.3739669,38.6568 42.0210199,38.3026675 C41.7991987,38.0811976 41.6571457,37.8060048 41.5959536,37.4792819 C41.559894,37.2753542 41.5413179,36.8839446 41.5413179,36.3072458 C41.5413179,35.730547 41.559894,35.3391373 41.5959536,35.1341133 C41.6571457,34.8095831 41.7991987,34.5343904 42.0210199,34.3107277 C42.3739669,33.9565952 42.8077748,33.7789807 43.3224437,33.7789807 C43.785755,33.7789807 44.1736689,33.910547 44.484,34.1703904 C44.8041656,34.4411976 45.0063179,34.8194506 45.0893642,35.3095349 L44.3244636,35.3095349 C44.1900596,34.7405108 43.8556887,34.456547 43.3224437,34.456547 C43.0208543,34.456547 42.7760861,34.5563181 42.5914172,34.7569566 C42.392543,34.9762337 42.2920132,35.4937277 42.2920132,36.3072458 C42.2920132,37.1218602 42.392543,37.6382578 42.5914172,37.8564386 C42.7760861,38.0570771 43.0208543,38.1557518 43.3224437,38.1557518 C43.8600596,38.1557518 44.1955232,37.8739807 44.3310199,37.306053 L45.0893642,37.306053 Z" mask="url(#logo-clb-b)"/>
      <polygon fill="#155880" points="48.206 33.808 50.029 38.792 49.229 38.792 49.007 38.149 48.881 37.793 47.92 34.932 47.149 37.144 48.039 37.144 48.262 37.793 46.919 37.793 46.578 38.792 45.778 38.792 47.601 33.808" mask="url(#logo-clb-b)"/>
      <polygon fill="#155880" points="54.105 38.792 51.817 35.295 51.817 38.792 51.065 38.792 51.065 33.822 51.755 33.822 54.043 37.312 54.043 33.822 54.795 33.822 54.795 38.792" mask="url(#logo-clb-b)"/>
      <path fill="#155880" d="M59.803649,37.306053 C59.7195099,37.7884627 59.5151722,38.1700048 59.1906358,38.4430048 C58.8803046,38.7039446 58.4956689,38.8344145 58.0367285,38.8344145 C57.5220596,38.8344145 57.0882517,38.6568 56.7353046,38.3026675 C56.5134834,38.0811976 56.3703377,37.8060048 56.3102384,37.4792819 C56.2741788,37.2753542 56.2556026,36.8839446 56.2556026,36.3072458 C56.2556026,35.730547 56.2741788,35.3391373 56.3102384,35.1341133 C56.3703377,34.8095831 56.5134834,34.5343904 56.7353046,34.3107277 C57.0882517,33.9565952 57.5220596,33.7789807 58.0367285,33.7789807 C58.5000397,33.7789807 58.8879536,33.910547 59.1982848,34.1703904 C59.5184503,34.4411976 59.7195099,34.8194506 59.803649,35.3095349 L59.0387483,35.3095349 C58.9043444,34.7405108 58.5699735,34.456547 58.0367285,34.456547 C57.7340464,34.456547 57.4903709,34.5563181 57.305702,34.7569566 C57.1057351,34.9762337 57.006298,35.4937277 57.006298,36.3072458 C57.006298,37.1218602 57.1057351,37.6382578 57.305702,37.8564386 C57.4903709,38.0570771 57.7340464,38.1557518 58.0367285,38.1557518 C58.5743444,38.1557518 58.9098079,37.8739807 59.0453046,37.306053 L59.803649,37.306053 Z" mask="url(#logo-clb-b)"/>
      <polygon fill="#155880" points="61.154 38.792 61.154 33.822 64.319 33.822 64.319 34.499 61.906 34.499 61.906 35.95 63.965 35.95 63.965 36.62 61.906 36.62 61.906 38.115 64.319 38.115 64.319 38.792" mask="url(#logo-clb-b)"/>
      <path fill="#155880" d="M67.3870927,36.0618747 C67.6515298,36.0618747 67.8842781,35.9949952 68.0831523,35.8601398 C68.2962318,35.7121277 68.4022252,35.5213566 68.4022252,35.2867301 C68.4022252,35.0455253 68.3246424,34.8547542 68.1661987,34.7155133 C68.0132185,34.5762723 67.8121589,34.5061036 67.5608344,34.5061036 L66.4484503,34.5061036 L66.4484503,35.9226337 L66.4484503,38.8050313 L65.697755,38.8050313 L65.697755,33.8285373 L67.6176556,33.8285373 C68.0809669,33.8285373 68.4546755,33.9666819 68.736596,34.2396819 C69.0152384,34.5061036 69.1540132,34.8525614 69.1540132,35.2801518 C69.1540132,35.6266096 69.058947,35.9160554 68.8688146,36.1539711 C68.6917947,36.3721518 68.4590464,36.523453 68.1661987,36.6067783 L69.3080861,38.8050313 L68.4306358,38.8050313 L67.3870927,36.7109349 L67.3870927,36.0618747 Z" mask="url(#logo-clb-b)"/>
      <polygon fill="#1FAFE5" points=".016 89.904 18.857 89.904 18.857 83.876 .016 83.876" mask="url(#logo-clb-b)"/>
    </g>
  </g>
</svg>
